<svg width="72" height="81" viewBox="0 0 72 81" fill="none" xmlns="http://www.w3.org/2000/svg">
<path d="M71.358 30.9423C71.3544 27.5604 70.0798 24.318 67.8142 21.9268C65.5481 19.5352 62.4764 18.19 59.2719 18.1861C45.5951 18.4662 42.6297 38.1492 55.3367 42.9898V57.0464C54.5876 76.9817 27.5727 76.9637 26.8683 57.0464V49.5872C31.8817 48.4723 36.3813 45.5759 39.616 41.3824C42.8502 37.1882 44.623 31.9499 44.6393 26.5422V11.9125C44.6351 9.51696 43.7308 7.2218 42.1246 5.52941C40.5191 3.83751 38.3427 2.88626 36.0735 2.88561H33.1019C31.6655 -1.59845 24.0664 -0.661943 24.1888 4.34724V10.3581C24.0779 15.6302 32.3061 16.284 33.2564 11.2965H34.5395C35.2068 11.2997 35.8462 11.5818 36.3172 12.0814C36.7875 12.581 37.0517 13.2571 37.0505 13.9613V26.3841C36.345 46.2294 9.41996 46.2425 8.6752 26.3841V13.9613C8.68611 13.177 9.01582 12.435 9.58069 11.9252C10.1456 11.4147 10.891 11.1857 11.6274 11.2964C12.5801 16.2876 20.8042 15.6268 20.695 10.358V4.34711C20.815 -0.770184 12.934 -1.60369 11.7121 3.12087H6.76829C4.85007 3.53217 3.12688 4.63367 1.89229 6.23661C0.657694 7.84024 -0.0108822 9.84622 0.000133991 11.9123V26.542C0.00316438 32.0654 1.84574 37.4111 5.20647 41.645C8.56657 45.8788 13.2311 48.7311 18.3828 49.7021V56.574C18.3828 65.0439 22.6636 72.8701 29.6136 77.1054C36.5636 81.3408 45.1259 81.3399 52.0759 77.1054C59.0252 72.8709 63.3067 65.0447 63.3067 56.574V42.9512C65.6589 42.0711 67.6947 40.4438 69.1366 38.2939C70.5779 36.144 71.3543 33.5759 71.3585 30.9422L71.358 30.9423ZM29.2869 11.7913H28.2608C27.511 11.7907 26.9037 11.1497 26.9031 10.3585V4.3476C26.9037 3.55634 27.511 2.91539 28.2608 2.91476H29.2869C30.0366 2.9154 30.6439 3.55634 30.6445 4.3476V9.85004C30.7542 10.3036 30.6651 10.7846 30.4021 11.1607C30.139 11.5375 29.7293 11.769 29.2869 11.7914V11.7913ZM14.2378 4.3476C14.2384 3.55634 14.8457 2.91539 15.5954 2.91476H16.6215C17.3706 2.9154 17.9785 3.55634 17.9791 4.3476V10.3585C17.9785 11.1497 17.3706 11.7907 16.6215 11.7913H15.5954C15.159 11.7689 14.7547 11.5431 14.4923 11.1747C14.2299 10.8063 14.1365 10.3336 14.2378 9.88514C14.2262 9.84996 14.2456 4.38926 14.2378 4.34766V4.3476ZM2.71478 26.5427V11.913C2.71296 10.5735 3.1251 9.26986 3.88877 8.20039C4.65244 7.13091 5.72646 6.35374 6.94709 5.9871H11.5224V8.43128C10.0793 8.34492 8.66593 8.888 7.61381 9.93384C6.56168 10.9797 5.96339 12.4368 5.9592 13.9618V26.3847C6.90045 50.0667 38.8698 50.0487 39.7651 26.3847V13.9618C39.7341 12.2814 39.0056 10.6996 37.7728 9.63516C36.5401 8.57076 34.9272 8.13068 33.36 8.43131V5.75182H36.0728C37.6219 5.75182 39.108 6.40043 40.2051 7.55572C41.3021 8.71095 41.9197 10.2775 41.9233 11.913V26.5428C41.9233 33.9347 38.1868 40.7651 32.121 44.4606C26.0559 48.1566 18.5829 48.1566 12.5168 44.4606C6.45105 40.7647 2.71453 33.9344 2.71453 26.5428L2.71478 26.5427ZM60.5903 56.5751V56.5757C60.5903 64.0208 56.8265 70.9009 50.7171 74.623C44.6072 78.3457 37.0801 78.3457 30.9702 74.623C24.8608 70.9002 21.097 64.0199 21.097 56.5741V50.0572C22.1146 50.1212 23.1359 50.1071 24.1517 50.0143V57.0467C25.0597 80.7975 57.1042 80.7959 58.0507 57.0467V43.6324C58.895 43.7232 59.7466 43.7181 60.5896 43.6183L60.5903 56.5751ZM59.2709 40.833H59.2715C56.7896 40.8215 54.4119 39.7756 52.6572 37.9237C50.9021 36.0714 49.9111 33.5625 49.9001 30.9431C50.3395 17.8556 68.2025 17.8556 68.6416 30.9431H68.6422C68.6392 33.5651 67.6513 36.0789 65.8942 37.9327C64.1378 39.7871 61.7559 40.8297 59.2715 40.833H59.2709Z" fill="#2D5CDC"/>
<path d="M59.2725 25.3164C57.3791 25.3343 55.6365 26.4102 54.6947 28.1438C53.7528 29.8773 53.7528 32.008 54.6947 33.7415C55.6365 35.475 57.3791 36.5515 59.2725 36.5695C61.1659 36.5516 62.9078 35.4751 63.8496 33.7415C64.7915 32.008 64.7915 29.8773 63.8496 28.1438C62.9078 26.4103 61.1652 25.3344 59.2725 25.3164V25.3164ZM59.2725 33.7037C58.3476 33.6877 57.4996 33.1581 57.0414 32.3105C56.5832 31.463 56.5832 30.4229 57.0414 29.5747C57.4996 28.7271 58.3476 28.1975 59.2725 28.1821C60.1967 28.1975 61.0453 28.7271 61.5029 29.5747C61.9611 30.4229 61.9611 31.4629 61.5029 32.3105C61.0453 33.1581 60.1967 33.6877 59.2725 33.7037V33.7037Z" fill="#2D5CDC"/>
</svg>
