<svg width="55" height="83" viewBox="0 0 55 83" fill="none" xmlns="http://www.w3.org/2000/svg">
<path d="M5.21484 26.1041V70.0702C5.21717 71.8914 5.90353 73.6376 7.1234 74.9256C8.34385 76.2131 9.99842 76.9374 11.724 76.9399H42.9678C44.6934 76.9375 46.3479 76.2131 47.5684 74.9256C48.7883 73.6376 49.4745 71.8914 49.4769 70.0702V26.1041C49.4746 24.2829 48.7882 22.5367 47.5684 21.2487C46.3479 19.9612 44.6934 19.2369 42.9678 19.2344H11.724C9.99842 19.2368 8.34384 19.9612 7.1234 21.2487C5.90352 22.5367 5.21722 24.2829 5.21484 26.1041ZM46.8733 26.1041V70.0702C46.8733 71.1632 46.4618 72.2122 45.7295 72.9849C44.9972 73.7576 44.0034 74.192 42.9679 74.192H11.724C10.6884 74.192 9.69454 73.7577 8.96239 72.9849C8.23025 72.212 7.81865 71.1631 7.81865 70.0702V26.1041C7.81865 25.0111 8.23011 23.9621 8.96239 23.1894C9.69467 22.4167 10.6885 21.9823 11.724 21.9823H42.9679C44.0035 21.9823 44.9974 22.4166 45.7295 23.1894C46.4617 23.9623 46.8733 25.0112 46.8733 26.1041Z" fill="#2D5CDC"/>
<path d="M11.7148 46.4602C11.716 47.6201 12.1536 48.7322 12.9307 49.5528C13.7083 50.3729 14.762 50.8347 15.8609 50.836H38.8132C39.9122 50.8347 40.9659 50.3729 41.7434 49.5528C42.5205 48.7321 42.9581 47.62 42.9592 46.4602V29.1062C42.9581 27.9463 42.5205 26.8342 41.7434 26.0136C40.9658 25.1936 39.9121 24.7317 38.8132 24.7305H15.8609C14.7619 24.7317 13.7082 25.1936 12.9307 26.0136C12.1536 26.8343 11.716 27.9464 11.7148 29.1062V46.4602ZM14.3185 29.1078V29.1071C14.3191 28.2085 15.0095 27.4799 15.8609 27.4793H38.8132C39.6646 27.4799 40.355 28.2086 40.3556 29.1071V46.4612C40.355 47.3598 39.6646 48.0884 38.8132 48.089H15.8609C15.0095 48.0884 14.3191 47.3598 14.3185 46.4612V29.1078Z" fill="#2D5CDC"/>
<path d="M29.9419 0H24.7346C23.699 0 22.7051 0.43426 21.973 1.20711C21.2408 1.97995 20.8292 3.02887 20.8292 4.12175V13.7393H11.7164C8.61005 13.743 5.63207 15.047 3.43533 17.365C1.23904 19.6836 0.00357072 22.8264 0 26.1048V70.071C0.00348711 73.3494 1.23905 76.4924 3.43533 78.8108C5.63222 81.1288 8.61005 82.4327 11.7164 82.4364H42.9603C46.0666 82.4328 49.0446 81.1287 51.2413 78.8108C53.4376 76.4922 54.6731 73.3494 54.6767 70.071V26.1048C54.6732 22.8264 53.4376 19.6834 51.2413 17.365C49.0445 15.047 46.0666 13.7431 42.9603 13.7393H33.8475V4.12175C33.8475 3.02873 33.436 1.97981 32.7037 1.20711C31.9714 0.434401 30.9776 0 29.9421 0H29.9419ZM23.4328 4.12183C23.4328 3.3631 24.0157 2.74788 24.7346 2.74788H26.0364V6.86971C26.0364 7.62844 26.6194 8.24365 27.3383 8.24365C28.0572 8.24365 28.6401 7.62844 28.6401 6.86971V2.74788H29.9419C30.2871 2.74788 30.6184 2.89264 30.8625 3.15025C31.1066 3.40787 31.2437 3.75749 31.2437 4.12183V13.7394H23.4328V4.12183ZM42.9602 16.4873C45.3761 16.4904 47.6921 17.5049 49.4007 19.3076C51.1087 21.1108 52.07 23.5552 52.073 26.1049V70.071C52.0701 72.6208 51.1088 75.0651 49.4007 76.8684C47.6921 78.671 45.3761 79.6855 42.9602 79.6886H11.7164C9.30047 79.6856 6.98441 78.6711 5.27582 76.8684C3.56782 75.0651 2.60655 72.6208 2.60358 70.071V26.1049C2.60648 23.5552 3.56775 21.1108 5.27582 19.3076C6.98441 17.505 9.30047 16.4904 11.7164 16.4873H42.9602Z" fill="#2D5CDC"/>
<path d="M27.3359 44.6564C28.8457 44.6546 30.2935 44.021 31.3612 42.8935C32.4294 41.7668 33.0297 40.2389 33.0315 38.6453C33.0315 36.9702 31.7971 34.507 29.3632 31.3235C28.8529 30.704 28.1137 30.3477 27.3361 30.3477C26.5585 30.3477 25.8193 30.704 25.3089 31.3235C22.8745 34.5068 21.6406 36.9702 21.6406 38.6453C21.6424 40.2387 22.2427 41.7667 23.311 42.8935C24.3786 44.0209 25.8263 44.6545 27.3362 44.6564H27.3359ZM27.3359 33.049C29.6182 36.0331 30.4277 37.929 30.4277 38.6454C30.4277 39.8115 29.8384 40.8885 28.8818 41.4712C27.9251 42.0545 26.7465 42.0545 25.79 41.4712C24.8333 40.8885 24.244 39.8115 24.244 38.6454C24.244 37.9241 25.0535 36.0337 27.3358 33.049H27.3359Z" fill="#2D5CDC"/>
<path d="M27.3319 54.957C25.4332 54.957 23.6118 55.7532 22.2688 57.1701C20.9263 58.5876 20.1719 60.51 20.1719 62.5137C20.1719 64.5175 20.9262 66.4399 22.2688 67.8573C23.6119 69.2742 25.4333 70.0704 27.3319 70.0704C29.2305 70.0704 31.052 69.2742 32.3951 67.8573C33.7376 66.4398 34.492 64.5175 34.492 62.5137C34.4896 60.5104 33.7347 58.59 32.3922 57.1731C31.0497 55.7562 29.2301 54.9594 27.3319 54.957ZM27.3319 67.3225C26.1237 67.3225 24.9648 66.8159 24.1099 65.9142C23.2556 65.0119 22.7756 63.7889 22.7756 62.5137C22.7756 61.2386 23.2556 60.0155 24.1099 59.1133C24.9648 58.2116 26.1237 57.705 27.3319 57.705C28.5402 57.705 29.699 58.2116 30.5539 59.1133C31.4082 60.0155 31.8883 61.2386 31.8883 62.5137C31.8883 63.7889 31.4082 65.012 30.5539 65.9142C29.699 66.8159 28.5402 67.3225 27.3319 67.3225Z" fill="#2D5CDC"/>
<path d="M28.6505 62.5068C28.6505 63.2655 28.0676 63.8807 27.3487 63.8807C26.6298 63.8807 26.0469 63.2655 26.0469 62.5068C26.0469 61.748 26.6298 61.1328 27.3487 61.1328C28.0676 61.1328 28.6505 61.748 28.6505 62.5068Z" fill="#2D5CDC"/>
</svg>
