<svg width="29" height="75" viewBox="0 0 29 75" fill="none" xmlns="http://www.w3.org/2000/svg">
<path d="M24.2089 47.7482V10.253C24.2089 4.59912 19.8517 0 14.4941 0C9.137 0 4.7786 4.59984 4.7786 10.253V47.7464C1.73372 50.6483 0 54.7445 0 59.0954C0 67.5319 6.50177 74.3939 14.4934 74.3939C22.4857 74.3939 28.9875 67.5319 28.9875 59.0954C28.9875 54.7467 27.2543 50.6519 24.2089 47.7479V47.7482ZM14.4934 71.377C8.07807 71.377 2.85936 65.8677 2.85936 59.0963C2.85936 55.4086 4.40969 51.9495 7.11548 49.6039C7.44589 49.3169 7.63801 48.8896 7.63801 48.4377V10.2527C7.63801 6.26325 10.7147 3.01755 14.4941 3.01755C17.8508 3.01755 20.6468 5.57926 21.2326 8.9471H17.0609C16.2718 8.9471 15.6316 9.62207 15.6316 10.4556C15.6316 11.2891 16.2718 11.9641 17.0609 11.9641H21.3496V17.8789H17.0609C16.2718 17.8789 15.6316 18.5539 15.6316 19.3874C15.6316 20.221 16.2718 20.8959 17.0609 20.8959H21.3496V26.8115H17.0609C16.2718 26.8115 15.6316 27.4865 15.6316 28.32C15.6316 29.1535 16.2718 29.8285 17.0609 29.8285H21.3496V48.4387C21.3496 48.8892 21.541 49.3179 21.8721 49.6048C24.5773 51.9517 26.1282 55.4108 26.1282 59.0973C26.1282 65.8687 20.9081 71.3772 14.4935 71.3772L14.4934 71.377Z" fill="#2D5CDC"/>
<path d="M20.0501 51.9376L18.4832 50.5786V37.2468C18.4832 36.4133 17.843 35.7383 17.0538 35.7383H11.9189C11.1291 35.7383 10.4895 36.4133 10.4895 37.2468V50.5786L8.9226 51.9355C6.881 53.7072 5.71094 56.3159 5.71094 59.0971C5.71094 64.2051 9.64727 68.36 14.4858 68.36C19.3243 68.36 23.2618 64.2049 23.2618 59.0971C23.2618 56.3166 22.0917 53.7064 20.0501 51.9377L20.0501 51.9376ZM14.4864 65.3424C11.2249 65.3424 8.57095 62.5407 8.57095 59.097C8.57095 57.2229 9.36074 55.4619 10.7382 54.2669L12.8264 52.4575C13.1568 52.1705 13.3489 51.7432 13.3489 51.2913L13.3483 38.7553H15.6239V51.2921C15.6239 51.7439 15.8153 52.1712 16.1464 52.4582L18.2346 54.2698C19.6121 55.4647 20.4018 57.2236 20.4018 59.0978C20.4025 62.5414 17.7486 65.3424 14.4864 65.3424H14.4864Z" fill="#2D5CDC"/>
<path d="M17.0765 57.5879C16.2874 57.5879 15.6472 58.2636 15.6472 59.0964C15.6472 59.7672 15.1306 60.3123 14.4957 60.3123C13.7059 60.3123 13.0664 60.988 13.0664 61.8208C13.0664 62.6537 13.7059 63.3293 14.4957 63.3293C16.7068 63.3293 18.5064 61.4301 18.5064 59.0957C18.5058 58.2636 17.8656 57.5879 17.0764 57.5879L17.0765 57.5879Z" fill="#2D5CDC"/>
</svg>
