<svg width="84" height="84" viewBox="0 0 84 84" fill="none" xmlns="http://www.w3.org/2000/svg">
<path d="M54.1016 24.5254H56.7899V29.9017H54.1016V24.5254Z" fill="white"/>
<path d="M51.415 25.8693C51.415 26.6116 50.8134 27.2132 50.0711 27.2132C49.3288 27.2132 48.7266 26.6116 48.7266 25.8693C48.7266 25.127 49.3288 24.5254 50.0711 24.5254C50.8134 24.5254 51.415 25.127 51.415 25.8693Z" fill="white"/>
<path d="M62.165 25.8693C62.165 26.6116 61.5634 27.2132 60.8211 27.2132C60.0788 27.2132 59.4766 26.6116 59.4766 25.8693C59.4766 25.127 60.0788 24.5254 60.8211 24.5254C61.5634 24.5254 62.165 25.127 62.165 25.8693Z" fill="white"/>
<path d="M55.4455 37.9653C58.4368 37.9653 61.0822 36.0588 62.0279 33.2203L62.0971 33.0133L59.5463 32.1641L59.4771 32.3704C58.8982 34.1091 57.2776 35.2774 55.4453 35.2774C53.613 35.2774 51.9925 34.1096 51.4129 32.3716L51.3437 32.1647L48.793 33.0139L48.8621 33.2214C49.8085 36.0586 52.4539 37.9653 55.4452 37.9653H55.4455Z" fill="white"/>
<path d="M73.8029 47.0976L70.9941 46.571C71.6748 45.6398 72.1881 44.5998 72.5118 43.4942L74.2615 45.2433L75.7037 43.8011C77.3738 42.131 78.2933 39.9105 78.2933 37.5482C78.2933 35.7967 77.7794 34.1006 76.8087 32.6439L76.6389 32.3893C75.9629 31.3749 75.6054 30.1943 75.6054 28.9754V15.117C75.6054 6.96446 68.973 0.332031 60.8205 0.332031H50.0678C41.9153 0.332031 35.2829 6.96446 35.2829 15.117V28.9754C35.2829 30.1944 34.9254 31.375 34.2488 32.3893L34.0796 32.6433C33.1083 34.1006 32.5944 35.7967 32.5944 37.5482C32.5944 39.9099 33.514 42.1305 35.184 43.8011L36.6262 45.2433L38.3759 43.4936C38.6996 44.5998 39.2129 45.6391 39.8936 46.5704L37.0848 47.097C31.3684 48.1695 27.2186 53.1698 27.2186 58.9866V59.4714H29.907V58.9866C29.907 54.4619 33.1348 50.5731 37.5817 49.7388L51.4122 47.1463V40.8597L50.2891 40.6725C46.2666 40.0023 43.3474 36.5565 43.3474 32.4788V23.8821C45.5994 22.2556 47.4857 20.1642 48.869 17.7577L51.039 21.0129L52.1573 20.2671C53.5385 19.3464 54.6539 18.1298 55.4439 16.7317C56.2339 18.1297 57.3494 19.3463 58.7305 20.2671L59.8489 21.0129L62.0189 17.7577C63.4023 20.1642 65.2887 22.2558 67.5404 23.8821V32.4788C67.5404 36.5565 64.6212 40.0024 60.5992 40.6725L59.4762 40.8597V47.1463L73.3067 49.7394C77.7535 50.573 80.9814 54.4624 80.9814 58.9872V80.9767H47.3758C48.2215 79.8525 48.7238 78.4562 48.7238 76.9443V68.8796C48.7238 66.6562 50.5327 64.8472 52.7562 64.8472H56.7886C56.7886 66.3294 57.9948 67.5355 59.477 67.5355H60.3844C61.9277 70.7867 65.2305 72.9119 68.8857 72.9119C74.0737 72.9119 78.2945 68.6912 78.2945 63.5031C78.2945 58.315 74.0738 54.0943 68.8857 54.0943C65.2307 54.0943 61.9277 56.2195 60.3844 59.4707L59.4759 59.4713C57.9936 59.4713 56.7875 60.6774 56.7875 62.1596H52.755C49.0494 62.1596 46.0348 65.1742 46.0348 68.8799V76.9446C46.0348 79.1679 44.2259 80.977 42.0024 80.977C39.7789 80.977 37.9699 79.1681 37.9699 76.9446V68.8799C37.9699 65.1742 34.9554 62.1596 31.2497 62.1596C27.5441 62.1596 24.5295 65.1742 24.5295 68.8799V76.9446C24.5295 79.1679 22.7206 80.977 20.4971 80.977C18.2737 80.977 16.4646 79.1681 16.4646 76.9446V61.9282C18.0289 61.3737 19.153 59.8797 19.153 58.1272V56.6856C23.7063 56.0311 27.2177 52.1063 27.2177 47.3746V39.3761C28.9325 37.7549 29.9061 35.5181 29.9061 33.1314C29.9061 28.3857 26.0453 24.5254 21.2996 24.5254C19.021 24.5254 16.8609 25.3003 15.121 26.7256C13.3813 25.3003 11.2212 24.5254 8.94247 24.5254C4.19679 24.5254 0.335938 28.3857 0.335938 33.1314C0.335938 35.5181 1.30902 37.7549 3.02433 39.3761V47.3746C3.02433 52.1063 6.53533 56.0312 11.089 56.6856L11.0885 58.1272C11.0885 59.8791 12.2121 61.373 13.7768 61.9282V76.9446C13.7768 80.6502 16.7914 83.6648 20.4971 83.6648C24.2027 83.6648 27.2173 80.6502 27.2173 76.9446V68.8799C27.2173 66.6565 29.0262 64.8474 31.2497 64.8474C33.4731 64.8474 35.2822 66.6564 35.2822 68.8799V76.9446C35.2822 80.6502 38.2967 83.6648 42.0024 83.6648H83.669V58.9863C83.669 53.1693 79.5191 48.1692 73.8016 47.0972L73.8029 47.0976ZM40.6601 29.9027C39.1778 29.9027 37.9717 28.6965 37.9717 27.2143C37.9717 25.7321 39.1779 24.5259 40.6601 24.5259V29.9027ZM48.7242 43.0781V44.9156L42.9613 45.9962C41.493 44.611 40.66 42.6968 40.66 40.6553V37.4105L36.6513 41.4192C35.7649 40.3269 35.2836 38.9748 35.2836 37.5489C35.2836 36.33 35.641 35.1494 36.3177 34.1351L36.4868 33.8811C36.9588 33.1737 37.3216 32.4093 37.5709 31.61C38.4452 32.2267 39.5101 32.5906 40.6599 32.5906H40.6622C40.7111 37.5525 44.0239 41.7883 48.7242 43.0781ZM63.8879 15.5588L62.3312 12.4455L59.169 17.1888C57.6599 15.7477 56.7886 13.7452 56.7886 11.616V11.0859H54.1003V11.616C54.1003 13.7447 53.2289 15.7478 51.7199 17.1888L48.5577 12.4455L47.001 15.5588C46.0861 17.3893 44.8433 19.0355 43.3476 20.4172V16.2313C43.3476 14.1388 44.1626 12.1716 45.6419 10.6922L43.7412 8.79145C41.7543 10.7783 40.6598 13.4208 40.6598 16.2313V21.8384C39.6809 21.8384 38.7631 22.1029 37.9714 22.5616V15.1181C37.9714 8.44791 43.3977 3.02158 50.068 3.02158H60.8206C67.4909 3.02158 72.9172 8.44791 72.9172 15.1181V22.562C72.1255 22.1028 71.2077 21.8389 70.2288 21.8389L70.2294 16.2312C70.2294 13.4206 69.1348 10.7781 67.1474 8.7907L65.2467 10.6914C66.7266 12.1714 67.5416 14.1385 67.5416 16.2312V20.417C66.0459 19.0353 64.8038 17.3891 63.8882 15.5587L63.8879 15.5588ZM70.2291 29.9033V24.527C71.7114 24.527 72.9175 25.7332 72.9175 27.2154C72.9175 28.6971 71.7113 29.9033 70.2291 29.9033ZM62.165 43.0787C66.8653 41.7889 70.1781 37.553 70.2275 32.5911H70.2292C71.3784 32.5911 72.4439 32.2272 73.3188 31.6105C73.5682 32.4098 73.9309 33.1736 74.4023 33.881L74.572 34.1356C75.2481 35.15 75.6055 36.3305 75.6055 37.5494C75.6055 38.9753 75.1242 40.3268 74.2378 41.4191L70.2292 37.411V40.6558C70.2292 42.6973 69.3956 44.6115 67.9272 45.9973L62.1649 44.9167L62.165 43.0787ZM68.8852 56.7848C72.5908 56.7848 75.6054 59.7994 75.6054 63.505C75.6054 67.2107 72.5908 70.2253 68.8852 70.2253C66.7356 70.2253 64.7563 69.1964 63.5083 67.5369L67.5413 67.5374C69.0236 67.5374 70.2297 66.3313 70.2297 64.8491V62.1607C70.2297 60.6784 69.0235 59.4723 67.5413 59.4723H63.5089C64.7563 57.8138 66.7356 56.7848 68.8852 56.7848ZM59.4764 62.1611H67.5412L67.5429 64.8495H67.5412H59.4764V62.1611ZM15.1224 59.4727C14.3812 59.4727 13.7784 58.8699 13.7784 58.1288V56.7849H16.4668V58.1288C16.4662 58.87 15.8635 59.4727 15.1224 59.4727ZM5.24692 37.754C4.41859 37.0914 3.79952 36.2369 3.42803 35.2789H9.02698L12.2258 40.0768L17.6021 34.7005L19.7796 37.9673H24.7316L15.1224 45.6548L5.24692 37.754ZM8.94394 27.2148C10.8361 27.2148 12.6142 27.9513 13.9517 29.2889L15.1224 30.4602L16.2925 29.2895C17.6306 27.9519 19.4093 27.2149 21.3008 27.2149C24.5642 27.2149 27.219 29.8697 27.219 33.1331C27.219 33.88 27.0789 34.6049 26.8167 35.2792H21.2178L18.019 30.4813L12.6427 35.8576L10.4651 32.5914H3.05145C3.32641 29.5814 5.8632 27.2151 8.944 27.2151L8.94394 27.2148ZM5.71374 47.3754V41.5695L15.1225 49.0966L24.5313 41.5695V47.3754C24.5313 51.0811 21.5167 54.0957 17.811 54.0957H12.4341C8.72847 54.0957 5.71374 51.0811 5.71374 47.3754Z" fill="white"/>
</svg>
