<svg width="100" height="100" viewBox="0 0 100 100" fill="none" xmlns="http://www.w3.org/2000/svg">
<path d="M64.5195 29.0312H67.7456V35.4828H64.5195V29.0312Z" fill="white"/>
<path d="M61.2925 30.644C61.2925 31.5347 60.5706 32.2567 59.6798 32.2567C58.7891 32.2567 58.0664 31.5347 58.0664 30.644C58.0664 29.7532 58.7891 29.0312 59.6798 29.0312C60.5706 29.0312 61.2925 29.7532 61.2925 30.644Z" fill="white"/>
<path d="M74.1949 30.644C74.1949 31.5347 73.4729 32.2567 72.5822 32.2567C71.6914 32.2567 70.9688 31.5347 70.9688 30.644C70.9688 29.7532 71.6914 29.0312 72.5822 29.0312C73.4729 29.0312 74.1949 29.7532 74.1949 30.644Z" fill="white"/>
<path d="M66.1314 45.1607C69.7211 45.1607 72.8955 42.8729 74.0303 39.4666L74.1133 39.2183L71.0525 38.1992L70.9695 38.4468C70.2747 40.5333 68.33 41.9352 66.1312 41.9352C63.9325 41.9352 61.9879 40.5339 61.2923 38.4483L61.2093 38.1999L58.1484 39.2191L58.2314 39.4681C59.367 42.8727 62.5416 45.1607 66.1311 45.1607H66.1314Z" fill="white"/>
<path d="M88.1603 56.1187L84.7898 55.4867C85.6066 54.3693 86.2226 53.1214 86.6111 51.7946L88.7107 53.8935L90.4413 52.1629C92.4454 50.1588 93.5488 47.4942 93.5488 44.6594C93.5488 42.5576 92.9322 40.5222 91.7673 38.7742L91.5636 38.4687C90.7523 37.2515 90.3234 35.8348 90.3234 34.3721V17.7419C90.3234 7.95891 82.3644 0 72.5814 0H59.6782C49.8952 0 41.9363 7.95891 41.9363 17.7419V34.3721C41.9363 35.8348 41.5073 37.2515 40.6954 38.4687L40.4924 38.7735C39.3268 40.5222 38.7102 42.5576 38.7102 44.6594C38.7102 47.4935 39.8137 50.1581 41.8177 52.1629L43.5483 53.8935L45.6479 51.7939C46.0364 53.1213 46.6524 54.3685 47.4692 55.486L44.0986 56.118C37.239 57.405 32.2592 63.4053 32.2592 70.3855V70.9672H35.4853V70.3855C35.4853 64.9559 39.3586 60.2893 44.6949 59.2882L61.2915 56.1771V48.6332L59.9438 48.4086C55.1168 47.6043 51.6138 43.4693 51.6138 38.5761V28.2601C54.3161 26.3083 56.5797 23.7986 58.2397 20.9108L60.8436 24.817L62.1857 23.9221C63.843 22.8172 65.1816 21.3573 66.1296 19.6796C67.0776 21.3572 68.4162 22.8171 70.0735 23.9221L71.4156 24.817L74.0195 20.9108C75.6797 23.7986 77.9433 26.3085 80.6454 28.2601V38.5761C80.6454 43.4693 77.1424 47.6045 72.316 48.4086L70.9683 48.6332V56.1771L87.5649 59.2889C92.9011 60.2892 96.7745 64.9564 96.7745 70.3862V96.7737H56.4478C57.4627 95.4246 58.0654 93.749 58.0654 91.9347V82.2571C58.0654 79.589 60.2361 77.4181 62.9043 77.4181H67.7432C67.7432 79.1969 69.1906 80.6442 70.9693 80.6442H72.0582C73.9101 84.5456 77.8735 87.0958 82.2598 87.0958C88.4853 87.0958 93.5503 82.031 93.5503 75.8053C93.5503 69.5796 88.4855 64.5148 82.2598 64.5148C77.8737 64.5148 73.9101 67.065 72.0582 70.9664L70.9679 70.9671C69.1892 70.9671 67.7418 72.4145 67.7418 74.1931H62.9029C58.4561 74.1931 54.8386 77.8106 54.8386 82.2574V91.9351C54.8386 94.6031 52.6679 96.774 49.9997 96.774C47.3315 96.774 45.1608 94.6033 45.1608 91.9351V82.2574C45.1608 77.8106 41.5433 74.1931 37.0965 74.1931C32.6498 74.1931 29.0323 77.8106 29.0323 82.2574V91.9351C29.0323 94.6031 26.8616 96.774 24.1933 96.774C21.5253 96.774 19.3544 94.6033 19.3544 91.9351V73.9155C21.2316 73.25 22.5805 71.4573 22.5805 69.3542V67.6243C28.0444 66.8389 32.2581 62.1291 32.2581 56.4511V46.8529C34.3158 44.9074 35.4842 42.2233 35.4842 39.3592C35.4842 33.6644 30.8512 29.0321 25.1564 29.0321C22.4221 29.0321 19.83 29.9619 17.7421 31.6722C15.6544 29.9619 13.0623 29.0321 10.3278 29.0321C4.63303 29.0321 0 33.6644 0 39.3592C0 42.2233 1.16769 44.9074 3.22607 46.8529V56.4511C3.22607 62.1291 7.43927 66.839 12.9037 67.6243L12.903 69.3542C12.903 71.4565 14.2514 73.2492 16.1291 73.9155V91.9351C16.1291 96.3818 19.7466 99.9993 24.1934 99.9993C28.6401 99.9993 32.2576 96.3818 32.2576 91.9351V82.2574C32.2576 79.5894 34.4283 77.4185 37.0966 77.4185C39.7646 77.4185 41.9355 79.5892 41.9355 82.2574V91.9351C41.9355 96.3818 45.553 99.9993 49.9997 99.9993H99.9996V70.3851C99.9996 63.4048 95.0198 57.4046 88.1588 56.1182L88.1603 56.1187ZM48.389 35.4848C46.6103 35.4848 45.1629 34.0374 45.1629 32.2588C45.1629 30.48 46.6103 29.0327 48.389 29.0327V35.4848ZM58.0659 51.2953V53.5003L51.1504 54.7971C49.3884 53.1348 48.3888 50.8378 48.3888 48.388V44.4942L43.5785 49.3046C42.5147 47.9939 41.9372 46.3714 41.9372 44.6603C41.9372 43.1975 42.3661 41.7808 43.1781 40.5637L43.3811 40.2589C43.9475 39.41 44.3827 38.4927 44.682 37.5335C45.7311 38.2736 47.0089 38.7103 48.3888 38.7103H48.3916C48.4501 44.6645 52.4256 49.7475 58.0659 51.2953ZM76.2623 18.2722L74.3943 14.5361L70.5997 20.2281C68.7888 18.4989 67.7432 16.0958 67.7432 13.5408V12.9046H64.5172V13.5408C64.5172 16.0952 63.4716 18.499 61.6608 20.2281L57.8661 14.5361L55.9981 18.2722C54.9002 20.4688 53.4088 22.4441 51.614 24.1022V19.0791C51.614 16.5681 52.592 14.2075 54.3672 12.4322L52.0863 10.1513C49.702 12.5356 48.3886 15.7065 48.3886 19.0791V25.8077C47.214 25.8077 46.1126 26.1251 45.1626 26.6754V17.7433C45.1626 9.73905 51.6742 3.22746 59.6784 3.22746H72.5816C80.5859 3.22746 87.0975 9.73905 87.0975 17.7433V26.676C86.1474 26.1249 85.0461 25.8082 83.8714 25.8082L83.8721 19.079C83.8721 15.7063 82.5586 12.5352 80.1737 10.1504L77.8928 12.4313C79.6688 14.2072 80.6468 16.5677 80.6468 19.079V24.102C78.852 22.4439 77.3614 20.4684 76.2627 18.272L76.2623 18.2722ZM83.8718 35.4855V29.0339C85.6505 29.0339 87.0978 30.4814 87.0978 32.26C87.0978 34.038 85.6504 35.4855 83.8718 35.4855ZM74.1948 51.296C79.8352 49.7482 83.8105 44.6652 83.8698 38.7109H83.8719C85.251 38.7109 86.5296 38.2742 87.5794 37.5341C87.8787 38.4933 88.3139 39.4099 88.8796 40.2588L89.0833 40.5643C89.8945 41.7815 90.3235 43.1982 90.3235 44.6609C90.3235 46.372 89.746 47.9937 88.6822 49.3045L83.8719 44.4948V48.3886C83.8719 50.8384 82.8716 53.1353 81.1095 54.7984L74.1947 53.5016L74.1948 51.296ZM82.2591 67.7433C86.7059 67.7433 90.3234 71.3608 90.3234 75.8076C90.3234 80.2544 86.7059 83.8719 82.2591 83.8719C79.6796 83.8719 77.3045 82.6372 75.8068 80.6458L80.6464 80.6465C82.4252 80.6465 83.8725 79.1991 83.8725 77.4204V74.1944C83.8725 72.4156 82.4251 70.9683 80.6464 70.9683H75.8075C77.3044 68.9781 79.6796 67.7433 82.2591 67.7433ZM70.9686 74.1949H80.6463L80.6483 77.421H80.6463H70.9686V74.1949ZM17.7437 70.9689C16.8543 70.9689 16.131 70.2455 16.131 69.3561V67.7434H19.3571V69.3561C19.3564 70.2455 18.6331 70.9689 17.7437 70.9689ZM5.89318 44.9064C4.89919 44.1112 4.1563 43.0859 3.71051 41.9362H10.4292L14.2678 47.6937L20.7194 41.2421L23.3324 45.1623H29.2747L17.7437 54.3873L5.89318 44.9064ZM10.3296 32.2593C12.6001 32.2593 14.7339 33.1431 16.3389 34.7482L17.7437 36.1538L19.1479 34.7489C20.7536 33.1439 22.8881 32.2595 25.1579 32.2595C29.0739 32.2595 32.2596 35.4452 32.2596 39.3612C32.2596 40.2576 32.0915 41.1274 31.777 41.9366H25.0582L21.2197 36.1791L14.7681 42.6307L12.155 38.7112H3.25862C3.58857 35.0993 6.63272 32.2596 10.3297 32.2596L10.3296 32.2593ZM6.45336 56.4521V49.485L17.7439 58.5175L29.0344 49.485V56.4521C29.0344 60.8989 25.4169 64.5164 20.9701 64.5164H14.5178C10.071 64.5164 6.45336 60.8989 6.45336 56.4521Z" fill="white"/>
</svg>
