<svg width="81" height="79" viewBox="0 0 81 79" fill="none" xmlns="http://www.w3.org/2000/svg">
<g opacity="0.5">
<path fill-rule="evenodd" clip-rule="evenodd" d="M5.18646 13.3367C3.95886 13.3367 2.96369 14.3319 2.96369 15.5595V71.1287C2.96369 72.3563 3.95886 73.3514 5.18646 73.3514H48.16C49.3876 73.3514 50.3827 72.3563 50.3827 71.1287V61.8671H53.3464V71.1287C53.3464 73.9931 51.0243 76.3151 48.16 76.3151H5.18646C2.32206 76.3151 0 73.9931 0 71.1287V15.5595C0 12.6951 2.32206 10.373 5.18646 10.373H14.0775V13.3367H5.18646ZM48.16 13.3367H40.0098V10.373H48.16C51.0243 10.373 53.3464 12.6951 53.3464 15.5595V37.0463H50.3827V15.5595C50.3827 14.3319 49.3876 13.3367 48.16 13.3367Z" fill="white"/>
<path fill-rule="evenodd" clip-rule="evenodd" d="M12.5977 9.63303C12.5977 7.17783 14.588 5.1875 17.0432 5.1875H37.0481C39.5033 5.1875 41.4936 7.17783 41.4936 9.63303V14.0786C41.4936 16.5338 39.5033 18.5241 37.0481 18.5241H17.0432C14.588 18.5241 12.5977 16.5338 12.5977 14.0786V9.63303ZM17.0432 8.15119C16.2248 8.15119 15.5613 8.81463 15.5613 9.63303V14.0786C15.5613 14.897 16.2248 15.5604 17.0432 15.5604H37.0481C37.8665 15.5604 38.5299 14.897 38.5299 14.0786V9.63303C38.5299 8.81463 37.8665 8.15119 37.0481 8.15119H17.0432Z" fill="white"/>
<path fill-rule="evenodd" clip-rule="evenodd" d="M27.0427 2.96369C24.7921 2.96369 22.9676 4.78816 22.9676 7.03876H20.0039C20.0039 3.15136 23.1553 0 27.0427 0C30.9301 0 34.0814 3.15136 34.0814 7.03876H31.1177C31.1177 4.78816 29.2933 2.96369 27.0427 2.96369Z" fill="white"/>
<path fill-rule="evenodd" clip-rule="evenodd" d="M6.66797 40.0106C6.66797 38.3738 7.99486 37.0469 9.63166 37.0469H14.0772C15.714 37.0469 17.0409 38.3738 17.0409 40.0106V49.6426C17.0409 51.2794 15.714 52.6062 14.0772 52.6062H9.63166C7.99486 52.6062 6.66797 51.2794 6.66797 49.6426V40.0106ZM14.0772 40.0106H9.63166V49.6426H14.0772V40.0106Z" fill="white"/>
<path fill-rule="evenodd" clip-rule="evenodd" d="M19.2617 26.6727C19.2617 25.0359 20.5886 23.709 22.2254 23.709H26.6709C28.3077 23.709 29.6346 25.0359 29.6346 26.6727V49.6413C29.6346 51.2781 28.3077 52.605 26.6709 52.605H22.2254C20.5886 52.605 19.2617 51.2781 19.2617 49.6413V26.6727ZM26.6709 26.6727H22.2254V49.6413H26.6709V26.6727Z" fill="white"/>
<path fill-rule="evenodd" clip-rule="evenodd" d="M31.8633 31.8602C31.8633 30.2234 33.1902 28.8965 34.827 28.8965H39.2725C40.9093 28.8965 42.2362 30.2234 42.2362 31.8602V42.2331H39.2725V31.8602L34.827 31.8602V49.6423H38.5316V52.606H34.827C33.1902 52.606 31.8633 51.2791 31.8633 49.6423V31.8602Z" fill="white"/>
<path fill-rule="evenodd" clip-rule="evenodd" d="M62.6701 63.2853L59.3359 59.9511L61.4316 57.8555L64.7657 61.1896L62.6701 63.2853Z" fill="white"/>
<path fill-rule="evenodd" clip-rule="evenodd" d="M62.8055 61.3253C64.6863 59.4446 67.7356 59.4446 69.6164 61.3253L77.075 68.784C78.9558 70.6647 78.9558 73.7141 77.075 75.5948C75.1942 77.4756 72.1449 77.4756 70.2642 75.5948L62.8055 68.1362C60.9248 66.2554 60.9248 63.2061 62.8055 61.3253ZM67.5207 63.421C66.7973 62.6976 65.6245 62.6976 64.9012 63.421C64.1778 64.1444 64.1778 65.3172 64.9012 66.0405L72.3598 73.4992C73.0832 74.2226 74.256 74.2226 74.9794 73.4992C75.7027 72.7758 75.7027 71.603 74.9794 70.8796L67.5207 63.421Z" fill="white"/>
<path fill-rule="evenodd" clip-rule="evenodd" d="M51.4949 37.7879C45.1523 37.7879 40.0106 42.9296 40.0106 49.2722C40.0106 55.6148 45.1523 60.7565 51.4949 60.7565C57.8375 60.7565 62.9792 55.6148 62.9792 49.2722C62.9792 42.9296 57.8375 37.7879 51.4949 37.7879ZM37.0469 49.2722C37.0469 41.2928 43.5155 34.8242 51.4949 34.8242C59.4743 34.8242 65.9428 41.2928 65.9428 49.2722C65.9428 57.2516 59.4743 63.7202 51.4949 63.7202C43.5155 63.7202 37.0469 57.2516 37.0469 49.2722Z" fill="white"/>
</g>
</svg>
