<svg width="91" height="63" viewBox="0 0 91 63" fill="none" xmlns="http://www.w3.org/2000/svg">
<path d="M58.9936 42.2472C54.8467 46.8229 48.0612 54.3819 45.2337 57.5644L31.4739 42.2472C30.7198 41.4514 29.5892 41.4514 28.8351 42.2472C28.081 43.043 28.081 44.2363 28.8351 45.0322L44.1023 61.941C44.479 62.3385 45.045 62.5376 45.4217 62.5376C45.9871 62.5376 46.3644 62.3385 46.7411 61.941C46.7411 61.941 56.5421 50.9996 62.0083 45.0322C62.7624 44.2364 62.7624 43.0431 62.0083 42.2472C61.0663 41.4514 59.7468 41.4514 58.9936 42.2472H58.9936Z" fill="#2D5CDC"/>
<path d="M72.003 31.9007C72.3797 32.2983 72.9457 32.4974 73.3224 32.4974C73.6991 32.4974 74.2651 32.2983 74.6417 31.9007C78.6 27.9225 80.4847 22.1534 79.9192 16.3845C79.1652 10.6156 75.961 5.44311 70.8715 2.4599C62.0131 -2.5133 50.8936 0.470087 45.8028 9.42221C45.6141 9.62134 45.6141 9.81977 45.4261 10.218C43.1641 5.84142 39.0179 2.45981 34.3057 0.86821C29.4049 -0.723376 24.3161 -0.126716 19.9805 2.65821C15.0797 5.64231 11.6869 10.6155 10.9328 16.3844C10.1788 22.1534 12.0635 27.7233 16.0216 31.9007C16.7757 32.6965 17.9063 32.6965 18.6604 31.9007C19.4146 31.1049 19.4145 29.9116 18.6604 29.1157C15.6443 25.9325 14.1369 21.5566 14.7022 16.981C15.2675 12.4055 17.9063 8.42713 21.8645 6.23892C25.446 4.24981 29.4042 3.65303 33.3622 4.84646C37.1316 6.03981 40.3364 8.62627 42.2213 12.207C42.7866 13.4003 43.9173 14.1961 45.2374 14.1961C46.3681 14.3952 47.6876 13.7985 48.4415 13.0027C48.8182 12.6052 48.8182 12.406 49.3842 11.6103C53.5311 4.64795 62.39 2.06135 69.3638 6.23956C73.322 8.62687 75.9607 12.6053 76.5261 17.181C77.0916 21.7567 75.5835 26.1324 72.3793 29.3156C71.2486 29.9116 71.2486 31.1049 72.0026 31.9008L72.003 31.9007Z" fill="#2D5CDC"/>
<path d="M88.5884 34.6866H65.2161L62.5772 27.1275C62.3886 26.3317 61.8232 25.9342 61.0692 25.7351C60.3152 25.7351 59.7498 25.9342 59.1845 26.5309L52.9643 36.0798L48.6287 21.3593C48.4401 20.5635 47.686 19.9668 46.9327 19.9668C46.1787 19.9668 45.4246 20.5635 45.048 21.3593L41.2786 32.4991L36.5664 26.3325C36.1897 25.7358 35.6237 25.5367 34.8704 25.5367C34.305 25.5367 33.7397 25.9342 33.3623 26.5316L29.0268 34.4889L1.8847 34.4882C0.75398 34.4882 0 35.284 0 36.4773C0 37.6706 0.754031 38.4664 1.8847 38.4664H30.3462C31.1002 38.4664 31.6656 38.0689 32.0423 37.4715L35.435 31.1058L40.7125 37.6706C41.0892 38.2673 41.8432 38.4664 42.4085 38.2673C43.1626 38.0681 43.5392 37.6706 43.9166 36.8748L46.9327 28.1218L50.7021 40.8532C50.8908 41.649 51.6448 42.2457 52.5868 42.2457C53.1521 42.2457 53.7175 41.8481 54.0948 41.4499L60.5031 31.7026L62.1991 36.8749C62.3878 37.6707 63.1418 38.2673 63.8951 38.2673H88.5886C89.7193 38.2673 90.4733 37.4715 90.4733 36.2782C90.4733 35.0849 89.7193 34.6866 88.5886 34.6866L88.5884 34.6866Z" fill="#2D5CDC"/>
</svg>
