<svg width="81" height="50" viewBox="0 0 81 50" fill="none" xmlns="http://www.w3.org/2000/svg">
<path fill-rule="evenodd" clip-rule="evenodd" d="M11.057 2.1967C12.4635 0.790174 14.3712 0 16.3603 0H73.5C77.6421 0 81 3.35786 81 7.5V42C81 46.1421 77.6421 49.5 73.5 49.5H7.5C3.35786 49.5 0 46.1421 0 42V16.0924C0 14.0245 0.853866 12.0483 2.35977 10.6309L6.8304 6.42328L11.057 2.1967ZM16.3603 3C15.1668 3 14.0222 3.4741 13.1783 4.31802L8.91959 8.57673L4.41586 12.8155C3.51232 13.6659 3 14.8517 3 16.0924V42C3 44.4853 5.01472 46.5 7.5 46.5H73.5C75.9853 46.5 78 44.4853 78 42V7.5C78 5.01472 75.9853 3 73.5 3H16.3603Z" fill="#859DDB"/>
<path fill-rule="evenodd" clip-rule="evenodd" d="M31.1493 8.09931C31.8618 7.24434 32.9172 6.75 34.0301 6.75H69.75C71.8211 6.75 73.5 8.42893 73.5 10.5V38.25C73.5 40.3211 71.8211 42 69.75 42H32.25C30.1789 42 28.5 40.3211 28.5 38.25V12.6773C28.5 11.8258 28.7898 10.9997 29.3217 10.3347L30.169 9.27562L31.1493 8.09931ZM34.0301 8.25C33.3624 8.25 32.7291 8.5466 32.3016 9.05958L31.331 10.2244L30.493 11.2718C30.1739 11.6707 30 12.1664 30 12.6773V38.25C30 39.4926 31.0074 40.5 32.25 40.5H69.75C70.9926 40.5 72 39.4926 72 38.25V10.5C72 9.25736 70.9926 8.25 69.75 8.25H34.0301Z" fill="#859DDB"/>
</svg>
