<svg width="92" height="79" viewBox="0 0 92 79" fill="none" xmlns="http://www.w3.org/2000/svg">
<path d="M10.829 48.8945C4.81291 48.8945 0 53.9741 0 60.3235C0 66.6729 4.81291 71.7524 10.829 71.7524C16.8452 71.7524 21.6581 66.6729 21.6581 60.3235C21.6581 53.9741 16.8452 48.8945 10.829 48.8945ZM10.829 68.5777C6.46734 68.5777 3.00807 64.9268 3.00807 60.3235C3.00807 55.7201 6.46734 52.0692 10.829 52.0692C15.1907 52.0692 18.65 55.7201 18.65 60.3235C18.65 64.768 15.1907 68.5777 10.829 68.5777Z" fill="#2D5CDC"/>
<path d="M91.1456 24.4452C91.1456 16.191 85.2799 9.52411 77.6093 8.73043V7.93676C77.6093 3.49217 74.15 0 70.0891 0H51.1383C46.927 0 43.6182 3.65091 43.6182 7.93676V40.9537C43.6182 45.3982 47.0774 48.8904 51.1383 48.8904H59.1097V63.6528C59.1097 70.0022 54.1464 75.2405 48.1303 75.2405C42.1141 75.2405 37.1508 70.0022 37.1508 63.6528V34.1281C37.1508 26.0326 30.8339 19.3657 23.1633 19.3657C15.4927 19.3657 9.17578 26.0326 9.17578 34.1281V45.7157C9.17578 46.6681 9.77739 47.3031 10.6798 47.3031C11.5822 47.3031 12.1838 46.6681 12.1838 45.7157V34.1281C12.1838 27.7786 17.1472 22.5404 23.1633 22.5404C29.1794 22.5404 34.1427 27.7786 34.1427 34.1281V63.6528C34.1427 71.7483 40.4597 78.4152 48.1303 78.4152C55.8008 78.4152 62.1178 71.7483 62.1178 63.6528V48.8904H70.0891C74.3004 48.8904 77.6093 45.2395 77.6093 40.9537V40.16C85.1295 39.3663 91.1456 32.5407 91.1456 24.4452ZM70.0891 45.7157H60.9145H60.7641H60.6137H51.2887C48.7319 45.7157 46.7766 43.4934 46.7766 40.9537V7.77711C46.7766 5.07862 48.8823 3.01506 51.2887 3.01506H70.2396C72.7964 3.01506 74.7517 5.23735 74.7517 7.77711V8.57079C67.2315 9.36447 61.2153 16.1901 61.2153 24.2856C61.2153 32.3811 67.0811 39.2067 74.7517 40.0003V40.794C74.6013 43.6513 72.4956 45.7148 70.0891 45.7148V45.7157ZM77.6093 36.8266V34.9217C77.6093 33.9693 77.0077 33.3344 76.1053 33.3344C75.2029 33.3344 74.6013 33.9693 74.6013 34.9217V36.8266C69.1867 36.0329 64.9754 31.5883 64.2234 25.8738H66.0283C66.9307 25.8738 67.5323 25.2389 67.5323 24.2865C67.5323 23.3341 66.9307 22.6991 66.0283 22.6991H64.2234C64.9754 16.9847 69.1867 12.5401 74.6013 11.7464V14.4449C74.6013 15.3973 75.2029 16.0322 76.1053 16.0322C77.0077 16.0322 77.6093 15.3973 77.6093 14.4449V11.7464C83.0238 12.5401 87.2351 16.9847 87.9872 22.6991H86.1823C85.2799 22.6991 84.6783 23.3341 84.6783 24.2865C84.6783 25.2389 85.2799 25.8738 86.1823 25.8738H87.9872C87.3855 31.747 83.0238 36.1916 77.6093 36.8266Z" fill="#2D5CDC"/>
<path d="M75.4948 19.9957C75.0436 19.9957 74.5923 20.1545 74.2915 20.3132L70.6819 16.5035C70.0802 15.8686 69.1778 15.8686 68.5762 16.5035C67.9746 17.1385 67.9746 18.0909 68.5762 18.7258L72.1859 22.5355C72.0355 23.0117 72.0355 23.3292 72.0355 23.8054C72.0355 25.8689 73.6899 27.615 75.6452 27.615C77.6004 27.615 79.2548 25.8689 79.2548 23.8054C79.2548 21.7418 77.45 19.9957 75.4948 19.9957ZM75.4948 24.2816C75.194 24.2816 74.8932 23.9641 74.8932 23.6466C74.8932 23.4879 74.8932 23.3292 75.0436 23.3292C75.194 23.1704 75.3444 23.1704 75.3444 23.1704C75.6452 23.1704 75.946 23.4879 75.946 23.8054C75.946 24.1228 75.7956 24.2816 75.4948 24.2816Z" fill="#2D5CDC"/>
</svg>
