<svg width="51" height="56" viewBox="0 0 51 56" fill="none" xmlns="http://www.w3.org/2000/svg">
<path d="M39.5594 6.64C40.7327 7.81333 41.7194 9.28 42.5194 11.04H50.9194V17.68H44.1194V18.72C44.1194 22.7733 43.0527 26.2667 40.9194 29.2C38.8394 32.1333 35.8527 34.32 31.9594 35.76L45.2394 56H31.3194L19.3994 37.68H3.63938V27.28H18.5194C22.7327 27.28 25.8527 26.4 27.8794 24.64C29.9594 22.88 31.026 20.56 31.0794 17.68H0.359375V11.04H29.2394C27.106 8.05333 23.3727 6.58667 18.0394 6.64H0.359375V0H50.9194V6.64H39.5594Z" fill="#859DDB"/>
</svg>
