<?xml version="1.0" standalone="no"?>
<!DOCTYPE svg PUBLIC "-//W3C//DTD SVG 20010904//EN"
 "http://www.w3.org/TR/2001/REC-SVG-20010904/DTD/svg10.dtd">
<svg version="1.0" xmlns="http://www.w3.org/2000/svg"
 width="86.000000pt" height="86.000000pt" viewBox="0 0 86.000000 86.000000"
 preserveAspectRatio="xMidYMid meet">

<g transform="translate(0.000000,86.000000) scale(0.100000,-0.100000)"
fill="#000000" stroke="none">
<path d="M346 656 c-56 -21 -87 -46 -110 -92 -18 -34 -21 -60 -24 -207 l-3
-167 53 0 c50 0 54 2 67 31 15 35 64 69 99 69 40 0 80 -28 93 -65 13 -35 14
-35 72 -35 l59 0 -4 168 c-3 157 -5 170 -28 212 -33 59 -91 91 -173 96 -39 3
-77 -1 -101 -10z m151 -101 c33 -22 43 -54 43 -135 l0 -69 -35 15 c-44 18
-106 18 -150 0 l-35 -15 0 78 c0 84 17 122 64 142 28 12 82 4 113 -16z"/>
</g>
</svg>
